#!OML:ASF E:\Style3\Style3.ASF
:FULLY-SPECIFIED
:DEGREES
5005
root -0.619936 17.8864 0.811745 -156.054 84.0105 -167.004
lowerback -1.34238 -4.50778 -1.64921
upperback -2.94186 -5.98603 -0.83883
thorax -2.19228 -2.94636 0.0880792
lowerneck -6.45381 -5.14284 -11.432
upperneck 35.346 3.45863 -17.6418
head 13.7582 -1.36343 -4.55808
rclavicle 7.90169e-014 6.36111e-015
rhumerus 16.5354 58.3972 -76.2845
rradius 128.393
rwrist 17.7938
rhand -30.1417 40.3331
rfingers 7.12502
rthumb -3.45426 10.3814
lclavicle 7.90169e-014 6.36111e-015
lhumerus 2.10995 -35.0449 77.6635
lradius 133.369
lwrist 18.4458
lhand -33.4124 2.88504
lfingers 7.12502
lthumb -6.6123 32.7618
rfemur -10.7636 12.9837 15.6468
rtibia 10.1688
rfoot -8.49513 -23.9365
rtoes -20.148
lfemur 0 0 0
ltibia 0
lfoot 0 0
ltoes 0
5006
root -0.629261 17.8866 0.817646 -155.865 83.9456 -166.807
lowerback -1.06147 -4.73702 -1.92905
upperback -2.92215 -6.30042 -0.758537
thorax -2.28699 -3.09598 0.346789
lowerneck -6.55162 -5.0631 -11.6351
upperneck 35.1066 3.7026 -17.9542
head 13.7143 -1.30746 -4.61083
rclavicle 7.90169e-015 -7.95139e-016
rhumerus 16.9046 58.9537 -75.8145
rradius 128.604
rwrist 17.9062
rhand -30.5313 40.8248
rfingers 7.12502
rthumb -3.83053 10.8795
lclavicle 7.90169e-015 -7.95139e-016
lhumerus 2.00353 -34.7444 77.6869
lradius 133.391
lwrist 18.1778
lhand -33.4116 3.03939
lfingers 7.12502
lthumb -6.61154 32.9162
rfemur -10.773 12.8691 15.7135
rtibia 10.1377
rfoot -8.37311 -23.8912
rtoes -20.4591
lfemur 0 0 0
ltibia 0
lfoot 0 0
ltoes 0
5007
root -0.637484 17.8871 0.82258 -154.939 83.933 -165.883
lowerback -0.981402 -4.64112 -1.89505
upperback -2.793 -6.17623 -0.992384
thorax -2.23019 -3.03849 0.0910011
lowerneck -6.31568 -5.20459 -11.3831
upperneck 34.8643 3.40538 -18.1853
head 13.5259 -1.40662 -4.75735
rclavicle -1.23743e-014 0
rhumerus 16.7128 58.6211 -75.8397
rradius 128.691
rwrist 18.2026
rhand -30.8593 41.1603
rfingers 7.12502
rthumb -4.14732 11.2209
lclavicle -1.23743e-014 0
lhumerus 2.32646 -35.341 77.4824
lradius 133.399
lwrist 18.1625
lhand -33.3945 3.27189
lfingers 7.12502
lthumb -6.59507 33.1492
rfemur -10.7912 12.8506 15.8259
rtibia 10.0765
rfoot -8.27094 -23.8626
rtoes -20.6439
lfemur 0 0 0
ltibia 0
lfoot 0 0
ltoes 0
5008
root -0.645051 17.8879 0.82736 -154.157 83.935 -165.101
lowerback -0.893245 -4.54186 -1.89422
upperback -2.6681 -6.04722 -1.21441
thorax -2.17662 -2.97734 -0.134089
lowerneck -6.07722 -5.33856 -11.1437
upperneck 34.6007 3.13649 -18.4578
head 13.3319 -1.49714 -4.91194
rclavicle -1.01281e-013 -7.95139e-015
rhumerus 16.5028 58.3052 -75.9079
rradius 128.807
rwrist 18.4652
rhand -31.1271 41.3548
rfingers 7.12502
rthumb -4.40592 11.4206
lclavicle -1.01281e-013 -7.95139e-015
lhumerus 2.65216 -35.9235 77.2597
lradius 133.437
lwrist 18.1075
lhand -33.5256 3.45766
lfingers 7.12502
lthumb -6.72166 33.331
rfemur -10.8117 12.8482 15.9126
rtibia 10.022
rfoot -8.23821 -23.7901
rtoes -20.5362
lfemur 0 0 0
ltibia 0
lfoot 0 0
ltoes 0
5009
root -0.654994 17.8878 0.833019 -153.339 83.9476 -164.286
lowerback -0.712374 -4.5459 -2.00211
upperback -2.58337 -6.05897 -1.2945
thorax -2.18815 -2.98218 -0.145009
lowerneck -6.08603 -5.34976 -11.0809
upperneck 34.4545 3.17725 -18.7256
head 13.2812 -1.49038 -5.01791
rclavicle 6.97734e-014 -3.97569e-015
rhumerus 16.4546 58.2806 -75.7799
rradius 128.999
rwrist 18.7401
rhand -31.0291 41.35
rfingers 7.12502
rthumb -4.31127 11.4139
lclavicle 6.97734e-014 -3.97569e-015
lhumerus 2.79924 -36.103 77.1503
lradius 133.384
lwrist 17.8511
lhand -33.5552 3.3109
lfingers 7.12502
lthumb -6.75021 33.1833
rfemur -10.8517 12.8992 15.9938
rtibia 9.96537
rfoot -8.0523 -23.8167
rtoes -20.6333
lfemur 0 0 0
ltibia 0
lfoot 0 0
ltoes 0
5010
root -0.664806 17.8874 0.836093 -152.548 84.0107 -163.525
lowerback -0.588042 -4.5274 -2.11647
upperback -2.50522 -6.03876 -1.3649
thorax -2.17341 -2.97097 -0.147433
lowerneck -6.04499 -5.3222 -11.0654
upperneck 34.2614 3.23239 -18.9123
head 13.1974 -1.46838 -5.07323
rclavicle -5.80451e-014 -6.36111e-015
rhumerus 16.34 58.2895 -75.6235
rradius 129.161
rwrist 19.1556
rhand -31.0851 41.3659
rfingers 7.12502
rthumb -4.36535 11.4309
lclavicle -5.80451e-014 -6.36111e-015
lhumerus 2.9088 -36.294 77.151
lradius 133.277
lwrist 17.3665
lhand -33.552 3.16354
lfingers 7.12502
lthumb -6.7471 33.036
rfemur -10.9317 12.9856 16.0084
rtibia 9.90112
rfoot -7.80889 -23.8464
rtoes -20.8962
lfemur 0 0 0
ltibia 0
lfoot 0 0
ltoes 0
5011
root -0.671514 17.8878 0.83909 -151.818 84.0878 -162.841
lowerback -0.487769 -4.56824 -2.29363
upperback -2.45799 -6.09718 -1.38272
thorax -2.16407 -2.99697 -0.0621379
lowerneck -5.96526 -5.20791 -11.0853
upperneck 33.9455 3.38957 -19.1235
head 13.061 -1.39715 -5.10783
rclavicle -1.49089e-015 2.38542e-014
rhumerus 16.2866 58.4623 -75.4679
rradius 129.271
rwrist 19.4867
rhand -30.504 41.8691
rfingers 7.12502
rthumb -3.80418 11.9233
lclavicle -1.49089e-015 2.38542e-014
lhumerus 2.85646 -36.4096 77.2598
lradius 133.166
lwrist 16.7883
lhand -33.7043 3.06584
lfingers 7.12502
lthumb -6.89411 32.9336
rfemur -11.0185 13.0795 16.0025
rtibia 9.84446
rfoot -7.64112 -23.863
rtoes -21.3826
lfemur 0 0 0
ltibia 0
lfoot 0 0
ltoes 0
5012
root -0.679297 17.8881 0.843754 -150.491 84.143 -161.561
lowerback -0.410219 -4.53109 -2.4277
upperback -2.44329 -6.05115 -1.42953
thorax -2.18439 -2.97113 -0.0310184
lowerneck -5.62599 -5.10253 -10.9373
upperneck 33.6462 3.45172 -19.3254
head 12.859 -1.33047 -5.16928
rclavicle -2.97183e-014 1.59028e-015
rhumerus 15.9495 58.4436 -75.5041
rradius 129.385
rwrist 19.6822
rhand -30.4171 42.0412
rfingers 7.12502
rthumb -3.72027 12.094
lclavicle -2.97183e-014 1.59028e-015
lhumerus 2.79336 -36.7298 77.3739
lradius 133.063
lwrist 16.3252
lhand -33.8825 2.92939
lfingers 7.12502
lthumb -7.06619 32.7914
rfemur -11.1177 13.1888 16.0849
rtibia 9.81046
rfoot -7.54554 -23.8413
rtoes -21.5709
lfemur 0 0 0
ltibia 0
lfoot 0 0
ltoes 0
5013
root -0.687783 17.8884 0.847885 -149.268 84.2275 -160.426
lowerback -0.44082 -4.3189 -2.43959
upperback -2.43095 -5.76689 -1.64731
thorax -2.18005 -2.82977 -0.251709
lowerneck -5.02771 -5.10022 -10.6063
upperneck 33.4409 3.27274 -19.4353
head 12.6096 -1.33019 -5.24884
rclavicle -9.0447e-015 -1.43125e-014
rhumerus 15.0804 57.9357 -76.0114
rradius 129.511
rwrist 19.8281
rhand -30.3825 41.9856
rfingers 7.12502
rthumb -3.68683 12.0377
lclavicle -9.0447e-015 -1.43125e-014
lhumerus 2.82149 -37.5447 77.396
lradius 133.044
lwrist 15.9304
lhand -34.0022 3.12917
lfingers 7.12502
lthumb -7.18171 32.9873
rfemur -11.2944 13.3132 16.1199
rtibia 9.81927
rfoot -7.52168 -23.828
rtoes -21.4294
lfemur 0 0 0
ltibia 0
lfoot 0 0
ltoes 0
5014
root -0.69464 17.8897 0.851883 -148.61 84.3498 -159.857
lowerback -0.379052 -4.1951 -2.55227
upperback -2.39979 -5.60446 -1.78718
thorax -2.18781 -2.74687 -0.33046
lowerneck -4.8729 -5.01806 -10.533
upperneck 33.2935 3.29345 -19.3693
head 12.5054 -1.28608 -5.2114
rclavicle -8.64713e-015 -1.59028e-014
rhumerus 14.5798 57.678 -76.2603
rradius 129.572
rwrist 19.9751
rhand -30.4447 41.9962
rfingers 7.12502
rthumb -3.74692 12.0494
lclavicle -8.64713e-015 -1.59028e-014
lhumerus 2.85506 -38.0592 77.4372
lradius 132.933
lwrist 15.4113
lhand -34.2464 3.13047
lfingers 7.12502
lthumb -7.41741 32.9804
rfemur -11.4505 13.4398 16.0762
rtibia 9.8193
rfoot -7.43941 -23.8319
rtoes -21.4297
lfemur 0 0 0
ltibia 0
lfoot 0 0
ltoes 0
5015
root -0.701635 17.8905 0.857202 -148.016 84.4965 -159.33
lowerback -0.281789 -4.06679 -2.66706
upperback -2.31142 -5.43666 -1.94837
thorax -2.15829 -2.66238 -0.429856
lowerneck -4.93575 -4.94354 -10.5435
upperneck 33.1761 3.27941 -19.097
head 12.453 -1.26567 -5.08872
rclavicle 8.19987e-014 2.38542e-014
rhumerus 14.2379 57.4497 -76.3866
rradius 129.577
rwrist 20.3039
rhand -30.746 42.0262
rfingers 7.12502
rthumb -4.03785 12.0847
lclavicle 8.19987e-014 2.38542e-014
lhumerus 3.02901 -38.4832 77.3908
lradius 132.725
lwrist 14.9633
lhand -34.3779 2.85738
lfingers 7.12502
lthumb -7.54429 32.7028
rfemur -11.6189 13.5845 16.0141
rtibia 9.85839
rfoot -7.34888 -23.8649
rtoes -21.5193
lfemur 0 0 0
ltibia 0
lfoot 0 0
ltoes 0
5016
root -0.706741 17.8907 0.860659 -147.136 84.6144 -158.502
lowerback -0.288577 -3.893 -2.65333
upperback -2.22426 -5.20231 -2.17007
thorax -2.08892 -2.5478 -0.670195
lowerneck -4.80345 -4.87259 -10.2901
upperneck 33.0777 3.25869 -19.0184
head 12.3633 -1.22259 -5.08601
rclavicle -3.67752e-014 -2.70347e-014
rhumerus 13.6683 57.0718 -76.722
rradius 129.632
rwrist 20.4941
rhand -30.77 42.2227
rfingers 7.12502
rthumb -4.06103 12.2816
lclavicle -3.67752e-014 -2.70347e-014
lhumerus 3.23069 -39.0471 77.247
lradius 132.635
lwrist 14.7804
lhand -34.4064 2.84307
lfingers 7.12502
lthumb -7.5718 32.6875
rfemur -11.7792 13.7187 15.9852
rtibia 9.92633
rfoot -7.21463 -23.8924
rtoes -21.9129
lfemur 0 0 0
ltibia 0
lfoot 0 0
ltoes 0
5017
root -0.71181 17.8908 0.864403 -146.42 84.7557 -157.823
lowerback -0.202769 -3.80717 -2.75746
upperback -2.22629 -5.09211 -2.28218
thorax -2.14115 -2.49014 -0.722358
lowerneck -4.63034 -4.66065 -10.0794
upperneck 32.9602 3.51277 -19.0925
head 12.2897 -1.06826 -5.10734
rclavicle 4.51241e-014 3.18055e-015
rhumerus 13.0833 57.0248 -77.0959
rradius 129.706
rwrist 20.5975
rhand -30.6811 42.5111
rfingers 7.12502
rthumb -3.97522 12.5684
lclavicle 4.51241e-014 3.18055e-015
lhumerus 3.12497 -39.3562 77.2966
lradius 132.609
lwrist 14.7815
lhand -34.4342 2.66274
lfingers 7.12502
lthumb -7.5987 32.5062
rfemur -11.9063 13.8668 15.9406
rtibia 9.99004
rfoot -6.96336 -23.9241
rtoes -22.5925
lfemur 0 0 0
ltibia 0
lfoot 0 0
ltoes 0
